<?xml version="1.0" standalone="no"?><svg xmlns="http://www.w3.org/2000/svg" viewBox="0 0 1440 320"><path fill="#273036" fill-opacity="1" d="M0,32L10,64C20,96,40,160,60,202.7C80,245,100,267,120,250.7C140,235,160,181,180,138.7C200,96,220,64,240,53.3C260,43,280,53,300,64C320,75,340,85,360,112C380,139,400,181,420,181.3C440,181,460,139,480,122.7C500,107,520,117,540,138.7C560,160,580,192,600,192C620,192,640,160,660,176C680,192,700,256,720,250.7C740,245,760,171,780,149.3C800,128,820,160,840,192C860,224,880,256,900,229.3C920,203,940,117,960,96C980,75,1000,117,1020,138.7C1040,160,1060,160,1080,154.7C1100,149,1120,139,1140,144C1160,149,1180,171,1200,197.3C1220,224,1240,256,1260,245.3C1280,235,1300,181,1320,165.3C1340,149,1360,171,1380,154.7C1400,139,1420,85,1430,58.7L1440,32L1440,320L1430,320C1420,320,1400,320,1380,320C1360,320,1340,320,1320,320C1300,320,1280,320,1260,320C1240,320,1220,320,1200,320C1180,320,1160,320,1140,320C1120,320,1100,320,1080,320C1060,320,1040,320,1020,320C1000,320,980,320,960,320C940,320,920,320,900,320C880,320,860,320,840,320C820,320,800,320,780,320C760,320,740,320,720,320C700,320,680,320,660,320C640,320,620,320,600,320C580,320,560,320,540,320C520,320,500,320,480,320C460,320,440,320,420,320C400,320,380,320,360,320C340,320,320,320,300,320C280,320,260,320,240,320C220,320,200,320,180,320C160,320,140,320,120,320C100,320,80,320,60,320C40,320,20,320,10,320L0,320Z"></path></svg>